<svg width="49" height="48" viewBox="0 0 49 48" fill="none" xmlns="http://www.w3.org/2000/svg">
<g clip-path="url(#clip0_3_1847)">
<g clip-path="url(#clip1_3_1847)">
<path d="M24.8406 22.8025C29.1448 22.8025 32.4925 19.3071 32.4925 15.0173C32.4925 10.7276 28.9854 7.39111 24.6812 7.39111C20.377 7.39111 17.0293 10.8865 17.0293 15.0173C17.0293 19.3071 20.5364 22.8025 24.8406 22.8025ZM24.6812 10.5687C24.8406 10.5687 24.8406 10.5687 24.6812 10.5687C27.2318 10.5687 29.3042 12.6342 29.3042 15.1762C29.3042 17.7183 27.2318 19.6249 24.6812 19.6249C22.1306 19.6249 20.2176 17.5594 20.2176 15.1762C20.2176 12.6342 22.29 10.5687 24.6812 10.5687V10.5687Z" fill="#00A0C1"/>
<path d="M48.434 21.8487C45.4051 19.1477 41.4198 17.7178 37.275 17.8767H35.9997C35.6808 19.1477 35.2026 20.2599 34.5649 21.2132C35.5214 21.0543 36.3185 21.0543 37.275 21.0543C40.3039 20.8954 43.3327 21.8487 45.724 23.5964V35.0357H48.9123V22.3253L48.434 21.8487Z" fill="#00A0C1"/>
<path d="M33.6083 7.70826C34.4053 5.8017 36.6371 4.84842 38.7095 5.64282C40.6225 6.43722 41.579 8.66154 40.7819 10.727C40.1443 12.1569 38.7095 13.1102 37.2748 13.1102C36.956 13.1102 36.4777 13.1102 36.1589 12.9513C36.3183 13.7457 36.3183 14.5401 36.3183 15.1756V16.1289C36.6371 16.1289 36.956 16.2878 37.2748 16.2878C41.2602 16.2878 44.4485 13.1102 44.4485 9.29706C44.4485 5.32506 41.2602 2.14746 37.4342 2.14746C34.8836 2.14746 32.6518 3.4185 31.3765 5.64282C32.1735 6.11946 32.9706 6.75498 33.6083 7.70826V7.70826Z" fill="#00A0C1"/>
<path d="M15.4352 21.3724C14.7975 20.4191 14.3193 19.3069 14.0005 18.0359H12.7252C8.58037 17.877 4.59501 19.3069 1.56613 21.849L1.08789 22.3257V35.0361H4.27618V23.5967C6.82681 21.849 9.69628 20.8957 12.7252 21.0546C13.6816 21.0546 14.6381 21.2135 15.4352 21.3724Z" fill="#00A0C1"/>
<path d="M12.7251 16.1295C13.044 16.1295 13.3628 16.1295 13.6816 15.9706V15.0174C13.6816 14.223 13.6816 13.4286 13.841 12.793C13.5222 12.9519 13.044 12.9519 12.7251 12.9519C10.6527 12.9519 8.89917 11.2042 8.89917 9.1388C8.89917 7.07336 10.6527 5.32568 12.7251 5.32568C14.3193 5.32568 15.754 6.27896 16.3917 7.70888C17.0293 6.91448 17.9858 6.12008 18.7829 5.48456C16.7105 2.14809 12.4063 1.03593 9.05859 3.10136C5.71088 5.1668 4.59498 9.45656 6.66737 12.793C7.94269 14.8585 10.1745 16.1295 12.7251 16.1295V16.1295Z" fill="#00A0C1"/>
<path d="M37.9128 31.3817L37.594 30.9051C34.4057 27.4097 29.9421 25.3443 25.1596 25.5032C20.3772 25.3443 15.7542 27.4097 12.5659 30.9051L12.2471 31.3817V43.4566C12.2471 44.8865 13.363 46.1576 14.9571 46.1576H35.3622C36.7969 46.1576 38.0722 44.8865 38.0722 43.4566V31.3817H37.9128ZM34.7245 42.98H15.4354V32.4939C17.986 29.9518 21.4931 28.6808 25.1596 28.6808C28.6668 28.5219 32.1739 29.9518 34.7245 32.4939V42.98Z" fill="#00A0C1"/>
</g>
</g>
<defs>
<clipPath id="clip0_3_1847">
<rect width="48" height="48" fill="white" transform="translate(0.5)"/>
</clipPath>
<clipPath id="clip1_3_1847">
<rect width="48" height="44.2105" fill="white" transform="translate(1 2)"/>
</clipPath>
</defs>
</svg>
