<svg width="48" height="48" viewBox="0 0 48 48" fill="none" xmlns="http://www.w3.org/2000/svg">
<path d="M43.1501 22.2819C42.5746 22.2861 42.0045 22.3959 41.4673 22.6061L35.727 17.8214C35.8682 17.2998 35.9687 16.7587 35.9687 16.1883C35.9687 12.81 33.3021 10.0947 29.9843 10.0947C26.6665 10.0947 23.9998 12.81 23.9998 16.1883C23.9998 17.1536 24.2392 18.053 24.627 18.8622L17.6635 27.2421C17.3848 27.189 17.102 27.1605 16.8185 27.1568C16.39 27.1568 15.9855 27.23 15.5929 27.3372L9.45761 21.09C9.56533 20.6927 9.63714 20.2808 9.63714 19.8445C9.63714 17.1438 7.50189 14.9696 4.84958 14.9696C2.19727 14.9696 0.0620117 17.1438 0.0620117 19.8445C0.0620117 22.5452 2.19727 24.7194 4.84958 24.7194C5.27806 24.7194 5.68261 24.6463 6.07519 24.539L12.2105 30.7862C12.0954 31.1911 12.035 31.6102 12.0309 32.0317C12.0309 34.7324 14.1662 36.9066 16.8185 36.9066C19.4708 36.9066 21.6061 34.7324 21.6061 32.0317C21.6061 31.454 21.4912 30.9105 21.3116 30.3962L28.2847 22.0065C28.8281 22.1674 29.3906 22.2819 29.9843 22.2819C30.929 22.2766 31.8588 22.0418 32.6964 21.597L38.4391 26.3817C38.3941 26.6377 38.3685 26.8968 38.3625 27.1568C38.3625 29.8575 40.4978 32.0317 43.1501 32.0317C45.8024 32.0317 47.9377 29.8575 47.9377 27.1568C47.9377 24.4561 45.8024 22.2819 43.1501 22.2819Z" fill="#00A0C1"/>
</svg>
